<?xml version="1.0" encoding="UTF-8"?>
<svg version="1.1" xmlns="http://www.w3.org/2000/svg" width="244" height="428">
<path d="M0 0 C80.52 0 161.04 0 244 0 C244 141.24 244 282.48 244 428 C163.48 428 82.96 428 0 428 C0 286.76 0 145.52 0 0 Z " fill="#FEFEFD" transform="translate(0,0)"/>
<path d="M0 0 C10.2620284 -1.23144341 19.8808593 4.0091703 27.8125 10.125 C42.5769575 23.06829094 53.71085414 42.77727538 55.19067383 62.54736328 C55.26680472 65.11795877 55.27327185 67.67846081 55.25 70.25 C55.25773438 71.08917969 55.26546875 71.92835937 55.2734375 72.79296875 C55.23419069 85.84253287 52.38409083 98.31978381 49.125 110.875 C48.78186971 112.21727366 48.43942053 113.55972163 48.09765625 114.90234375 C46.88475398 119.65962477 45.67052725 124.41659419 44.43713379 129.16860962 C43.87827396 131.32356519 43.32544443 133.47999906 42.7734375 135.63671875 C42.44520996 136.90733154 42.11698242 138.17794434 41.77880859 139.48706055 C40.04652302 147.30080887 40.11793915 153.97767652 43.8046875 161.18359375 C45.55298891 163.84032629 46.99427451 164.95149111 50 166 C55.64454717 166.43896413 55.64454717 166.43896413 61 165 C61.71066405 163.35161326 62.36843733 161.68028296 63 160 C63.63808594 158.61167969 63.63808594 158.61167969 64.2890625 157.1953125 C69.06348555 146.22251568 68.90445633 135.664795 67 124 C71.30676065 124.47852896 73.23165117 126.82652696 76 130 C91.23987362 150.78164584 90.15540529 179.1393378 86.61938477 203.49682617 C83.31093598 223.24552775 77.03973543 242.54080047 70.76171875 261.51171875 C68.06645514 269.80189672 65.56893723 277.60273708 65.5 286.375 C65.47164062 287.04660156 65.44328125 287.71820313 65.4140625 288.41015625 C65.39894604 292.25729425 65.91975061 293.8973838 68.3125 296.95703125 C70.90582362 299.30438405 70.90582362 299.30438405 74.5 299.3125 C78.66412776 297.75095209 79.75689862 296.55376769 81.8125 292.7265625 C92.11058754 269.08161151 91.61169181 243.30439314 92 218 C95.42808117 218.61008224 95.98931101 218.98824211 98.5 221.75 C109.39710314 238.2293615 110.33745455 264.31895301 106.75 283.25 C105.75314151 287.97196126 104.58421388 292.63347725 103.35668945 297.29882812 C99.99538504 308.41784474 99.99538504 308.41784474 102.296875 319.25 C104.02356125 321.41391623 104.02356125 321.41391623 107.6875 321.25 C108.780625 321.1675 109.87375 321.085 111 321 C116.5041234 310.47269602 119.14012017 301.22044824 115.5 289.4375 C115.08234375 288.25994141 115.08234375 288.25994141 114.65625 287.05859375 C114 285 114 285 114 282 C117.76442433 282.54247163 119.1088308 283.88535895 121.375 286.875 C131.95738405 301.18966573 134.58075485 314.51309827 133 332 C130.57274463 346.66944879 123.88069642 359.97722658 114 371 C113.23300781 371.87269531 112.46601563 372.74539063 111.67578125 373.64453125 C100.31882031 385.80152312 85.84843872 394.17218324 70.86962891 401.12841797 C69.01127064 401.99474586 67.16721463 402.88667719 65.32421875 403.78515625 C60.15227421 406.26276955 55.72810276 408.26061582 50 409 C50 408.34 50 407.68 50 407 C52.20546388 405.61205247 54.41321 404.32841481 56.6875 403.0625 C73.31552122 393.44273796 85.06835328 381.55949649 92.375 363.625 C95.09458995 347.85137829 90.67546561 336.01319841 82 323 C82 322.34 82 321.68 82 321 C81.01 321 80.02 321 79 321 C79.495 322.093125 79.99 323.18625 80.5 324.3125 C82.41785514 329.50361751 82.90207764 334.52906615 82 340 C80.36627596 343.26096505 78.01029225 345.22544261 75.125 347.4375 C70.95937818 348.5401646 67.68013056 347.91189242 63.8984375 345.859375 C45.67493383 333.10936183 33.97141689 304.05708091 30 283 C26.45991582 259.93959246 30.14906154 238.01046185 37 216 C33.77336326 217.35964387 32.25267226 218.63883909 30.4140625 221.60546875 C29.96087646 222.33459473 29.50769043 223.0637207 29.04077148 223.81494141 C28.57356689 224.59788574 28.1063623 225.38083008 27.625 226.1875 C27.14039307 226.99106934 26.65578613 227.79463867 26.15649414 228.62255859 C18.99350672 240.78847691 13.58921485 253.65934848 13.6875 267.9375 C13.69023926 268.75508789 13.69297852 269.57267578 13.69580078 270.41503906 C13.85494532 279.90883375 15.23623579 289.37760361 18.08203125 298.44921875 C19.15213743 302.58848055 19.3313975 306.31056246 19.3125 310.5625 C19.32861328 311.29146484 19.34472656 312.02042969 19.36132812 312.77148438 C19.36564196 317.56415219 18.65734653 320.86150951 16 325 C12.2626144 327.4915904 10.42668417 327.45793285 6 327 C1.36587119 324.62905038 -0.4670366 321.01204475 -2.2421875 316.30859375 C-3.22454299 312.01964996 -3.2834291 307.88560722 -3.375 303.5 C-3.55487603 295.75629927 -4.54788264 289.92454908 -10 284 C-11.30415553 282.96223503 -12.63085683 281.95038138 -14 281 C-13.95359375 282.16015625 -13.9071875 283.3203125 -13.859375 284.515625 C-13.82180122 286.09372384 -13.78540719 287.67185107 -13.75 289.25 C-13.71648437 290.00796875 -13.68296875 290.7659375 -13.6484375 291.546875 C-13.44969522 303.47141209 -19.16285394 313.83541393 -24.375 324.25 C-33.81161269 343.47409234 -43.46263839 363.2113276 -37.375 385 C-34.4684593 393.26931298 -29.89593095 398.74595737 -23 404 C-23.66 404.33 -24.32 404.66 -25 405 C-27.72308529 403.94152499 -30.30712283 402.81983158 -32.9375 401.5625 C-33.70513672 401.19777588 -34.47277344 400.83305176 -35.26367188 400.45727539 C-41.72966149 397.29689403 -47.38439174 393.50333803 -53 389 C-54.6041187 387.77077073 -56.20828329 386.54160136 -57.8125 385.3125 C-58.54082031 384.73628906 -59.26914062 384.16007812 -60.01953125 383.56640625 C-61.65996747 382.26894091 -63.32678565 381.00491076 -65 379.75 C-72.90203885 373.05187288 -78.81521022 363.86222212 -84 355 C-84.46277344 354.22398437 -84.92554688 353.44796875 -85.40234375 352.6484375 C-97.26292098 331.09030625 -96.5268782 302.01700051 -90 279 C-84.55529608 261.96147966 -74.72469857 246.88306313 -64.75 232.1875 C-52.13353757 213.54612517 -45.45418802 196.44653517 -49.3671875 173.55859375 C-49.89371229 171.01110306 -49.89371229 171.01110306 -51.0703125 168.91015625 C-52 167 -52 167 -52 163 C-46.95566365 162.66022605 -44.94079718 164.02493793 -41.1171875 167.10546875 C-30.60491076 176.51221086 -23.98892559 187.94292694 -22.81936646 202.20230103 C-22.51809827 208.13066698 -22.47957177 214.06514799 -22.4375 220 C-22.41364023 222.66024429 -22.38552774 225.32016908 -22.34571838 227.98022461 C-22.32151705 229.62285154 -22.30653217 231.26564802 -22.30210876 232.90844727 C-22.24951984 236.73789851 -22.16725053 239.75424965 -20 243 C-16.43455159 243.32138213 -16.43455159 243.32138213 -13.3125 241.8125 C-9.46430308 236.49832331 -9.65007595 231.12848558 -9.6875 224.8125 C-9.69241455 223.82854248 -9.6973291 222.84458496 -9.70239258 221.83081055 C-9.86314962 211.6388139 -11.4918385 202.00317584 -13.6328125 192.06152344 C-19.86923529 163.03886046 -22.29388992 136.02584363 -6 110 C-2.81555384 105.22608308 0.58686473 100.61162132 4 96 C18.74220758 76.03439434 29.04577002 58.27541974 25.5390625 32.62890625 C22.85865673 21.76537932 17.81209911 13.5413994 8.5625 7.375 C5.44346719 5.70137264 2.27302264 4.3477152 -1 3 C-0.67 2.01 -0.34 1.02 0 0 Z " fill="#F94718" transform="translate(108,7)"/>
<path d="M0 0 C0.33 0 0.66 0 1 0 C1.13051758 0.79583496 1.26103516 1.59166992 1.39550781 2.41162109 C2.00200416 6.06812493 2.6258699 9.72146648 3.25 13.375 C3.45496094 14.62667969 3.65992188 15.87835938 3.87109375 17.16796875 C8.43326064 43.5732377 25.48304703 61.8516758 46 78 C45.01 78.495 45.01 78.495 44 79 C38.98996197 75.68156964 33.99124459 72.34662839 29 69 C28.27393555 68.51402344 27.54787109 68.02804687 26.79980469 67.52734375 C24.65382832 66.08709115 22.51370879 64.63851707 20.375 63.1875 C19.71306641 62.7443042 19.05113281 62.3011084 18.36914062 61.84448242 C14.50461442 59.20863426 11.21679443 56.43086169 8 53 C7.29875 52.2575 6.5975 51.515 5.875 50.75 C3.36335213 47.06624979 2.24864086 43.24696953 1 39 C0.505 37.515 0.505 37.515 0 36 C-0.08507079 33.2684044 -0.11591565 30.56308557 -0.09765625 27.83203125 C-0.0962413 27.03721848 -0.09482635 26.2424057 -0.09336853 25.42350769 C-0.08777378 22.88646675 -0.07522228 20.34951425 -0.0625 17.8125 C-0.05748432 16.09179815 -0.05292153 14.37109492 -0.04882812 12.65039062 C-0.03780607 8.4335597 -0.02054506 4.21679484 0 0 Z " fill="#F94E21" transform="translate(4,324)"/>
<path d="M0 0 C0.66 0 1.32 0 2 0 C2.82470174 24.67996328 -2.21983267 45.29951479 -19.125 63.9375 C-19.6401416 64.5061377 -20.1552832 65.07477539 -20.68603516 65.66064453 C-25.4843195 70.80044378 -25.4843195 70.80044378 -29 72 C-29.99 72 -30.98 72 -32 72 C-30.46306008 68.40554374 -28.26907971 66.04122357 -25.625 63.1875 C-20.62915031 57.47995105 -17.11340211 51.1474172 -13.625 44.4375 C-13.12564941 43.48061279 -12.62629883 42.52372559 -12.11181641 41.5378418 C-5.4252526 28.35527561 -1.25059527 14.7570242 0 0 Z " fill="#F95023" transform="translate(46,182)"/>
<path d="M0 0 C0.66 0 1.32 0 2 0 C1.56187102 4.16222534 1.10324018 8.30490198 0.48828125 12.4453125 C-2.22096568 30.85282 -1.30719974 45.0778807 9 61 C10.57743873 62.89457393 12.11895801 64.39558183 14 66 C10.00614207 65.47211617 7.90103064 64.46018707 4.9375 61.75 C4.28652344 61.16734375 3.63554688 60.5846875 2.96484375 59.984375 C-4.47266254 52.47293724 -8.17034021 43.00774163 -8.6875 32.4375 C-8.30757388 21.66475611 -5.02701804 9.54184933 0 0 Z " fill="#F95225" transform="translate(83,346)"/>
<path d="M0 0 C0.66 0 1.32 0 2 0 C1.7834375 1.36318359 1.7834375 1.36318359 1.5625 2.75390625 C1.376875 4.01074219 1.19125 5.26757812 1 6.5625 C0.814375 7.78066406 0.62875 8.99882812 0.4375 10.25390625 C-0.98657594 23.07637859 0.53999018 34.99096012 2.86376953 47.59863281 C4.4848818 56.50482514 5.34560051 64.94334655 5 74 C4.34 74 3.68 74 3 74 C2.85304688 72.96166016 2.85304688 72.96166016 2.703125 71.90234375 C1.57870804 64.54516726 -0.1033182 57.5046958 -2.09765625 50.34765625 C-6.4719965 34.1190433 -4.31072643 16.07105776 0 0 Z " fill="#FEE9E4" transform="translate(102,133)"/>
<path d="M0 0 C3.94875754 1.31625251 4.74682466 3.02459293 6.79296875 6.5234375 C13.29223038 19.85849212 12.43477772 35.35605408 8.0703125 49.14453125 C7.17479971 51.53365478 6.20640212 53.75565732 5 56 C4.21734746 53.65204239 3.95779391 52.20590032 4.45996094 49.75610352 C5.54183048 44.23475393 5.22753328 38.54575535 5.25 32.9375 C5.270625 31.67744141 5.29125 30.41738281 5.3125 29.11914062 C5.35528466 18.77060035 3.50791346 9.7142219 0 0 Z " fill="#F95022" transform="translate(165,46)"/>
<path d="M0 0 C1.07072588 3.21217765 0.94578406 3.98803079 0.125 7.125 C-2.05821028 15.51959728 -2.15869164 23.99993891 -2.125 32.625 C-2.12886719 33.62273437 -2.13273437 34.62046875 -2.13671875 35.6484375 C-2.12980644 40.87414454 -1.90851884 45.85172658 -1 51 C-5.2677411 47.19418087 -6.60229473 42.17388204 -7.30029297 36.60351562 C-7.43688579 34.14384414 -7.46701234 31.71320046 -7.4375 29.25 C-7.43210205 28.38036621 -7.4267041 27.51073242 -7.42114258 26.61474609 C-7.19084005 16.77818833 -4.50140807 8.74485579 0 0 Z " fill="#FEF5F3" transform="translate(30,280)"/>
<path d="M0 0 C0.66 0 1.32 0 2 0 C2.27150879 0.53890869 2.54301758 1.07781738 2.82275391 1.63305664 C4.08021706 4.11472377 5.35246426 6.5885301 6.625 9.0625 C7.05167969 9.91005859 7.47835937 10.75761719 7.91796875 11.63085938 C11.54171042 18.63495708 15.74809291 24.41343619 21.875 29.4375 C22.47054687 29.93121094 23.06609375 30.42492187 23.6796875 30.93359375 C24.33324219 31.46146484 24.33324219 31.46146484 25 32 C19.06569195 32 13.25204854 28.24736652 9.12109375 24.125 C4.69988436 18.02996461 0 7.67402964 0 0 Z " fill="#F95124" transform="translate(144,323)"/>
<path d="M0 0 C0.70605469 1.5715332 0.70605469 1.5715332 1 4 C-0.00017172 6.41471631 -1.0451165 8.57734485 -2.296875 10.85546875 C-2.64631165 11.51654129 -2.99574829 12.17761383 -3.35577393 12.85871887 C-4.47585473 14.97457761 -5.61161543 17.08144038 -6.75 19.1875 C-14.81651515 33.86673063 -14.81651515 33.86673063 -19 50 C-19.66 50 -20.32 50 -21 50 C-18.92455602 31.07318997 -10.34526093 15.69083648 0 0 Z " fill="#FEEFEC" transform="translate(85,309)"/>
<path d="M0 0 C0.33 0 0.66 0 1 0 C0.98428955 0.91587891 0.9685791 1.83175781 0.95239258 2.77539062 C0.90048295 6.25705917 0.86327898 9.7383018 0.83520508 13.22021484 C0.82035298 14.71149283 0.80006578 16.20272911 0.77368164 17.69384766 C0.58700561 28.53569872 1.65169901 38.40080806 4 49 C4.3369635 50.66593652 4.67190397 52.33229443 5 54 C1.8052551 51.40769271 1.02146289 48.63172473 -0.125 44.75 C-0.45757812 43.65171875 -0.79015625 42.5534375 -1.1328125 41.421875 C-2.75080167 35.03737721 -3.1938138 28.86131772 -3.1875 22.3125 C-3.18741943 21.52883057 -3.18733887 20.74516113 -3.18725586 19.93774414 C-3.02262764 3.02262764 -3.02262764 3.02262764 0 0 Z " fill="#FDDAD0" transform="translate(145,244)"/>
<path d="M0 0 C0.66 0.33 1.32 0.66 2 1 C2.47088831 17.67293412 0.54339212 29.86439122 -7 45 C-8.20282687 41.39151939 -7.68162829 40.1746053 -6.6015625 36.58203125 C-6.28711182 35.49905762 -5.97266113 34.41608398 -5.64868164 33.30029297 C-5.3108667 32.14932129 -4.97305176 30.99834961 -4.625 29.8125 C-1.77032466 19.74429304 0.11081663 10.48008657 0 0 Z " fill="#FEEAE4" transform="translate(156,71)"/>
<path d="M0 0 C0.66 0 1.32 0 2 0 C3.80645161 22.38709677 3.80645161 22.38709677 2 26 C1.34 26 0.68 26 0 26 C-1.17986385 23.64027231 -1.1291146 22.19952268 -1.1328125 19.5703125 C-1.13410156 18.69246094 -1.13539063 17.81460937 -1.13671875 16.91015625 C-1.13285156 15.99105469 -1.12898437 15.07195312 -1.125 14.125 C-1.12886719 13.21363281 -1.13273438 12.30226563 -1.13671875 11.36328125 C-1.13542969 10.48285156 -1.13414062 9.60242188 -1.1328125 8.6953125 C-1.13168457 7.89109863 -1.13055664 7.08688477 -1.12939453 6.25830078 C-1.0027734 4.04840365 -0.61146326 2.12220865 0 0 Z " fill="#F95428" transform="translate(225,256)"/>
<path d="M0 0 C0.66 0 1.32 0 2 0 C0.83877672 11.67102888 -5.90805503 20.86601895 -14 29 C-14 25.04278918 -12.5317416 23.42877272 -10.375 20.125 C-6.25033847 13.67329888 -3.04014245 7.03608726 0 0 Z " fill="#FEEAE5" transform="translate(231,346)"/>
<path d="M0 0 C1.20351427 2.88008617 1.03053373 3.92309253 -0.14453125 6.8828125 C-0.69496094 7.95273437 -1.24539062 9.02265625 -1.8125 10.125 C-4.53934726 15.72421073 -6.19323846 20.838011 -7 27 C-7.66 27 -8.32 27 -9 27 C-7.99365357 17.82272137 -6.09003116 9.3373712 -2 1 C-1.34 0.67 -0.68 0.34 0 0 Z " fill="#FEE4DD" transform="translate(73,332)"/>
<path d="M0 0 C0.33 0.66 0.66 1.32 1 2 C-1.71194483 9.34485057 -6.38563222 15.74999177 -11 22 C-11.33 21.34 -11.66 20.68 -12 20 C-9.09608769 12.6554747 -5.02849175 6.06272055 0 0 Z " fill="#FDE1D9" transform="translate(158,195)"/>
<path d="M0 0 C0.33 0 0.66 0 1 0 C1.33848652 1.89492006 1.67056911 3.79098466 2 5.6875 C2.185625 6.74324219 2.37125 7.79898437 2.5625 8.88671875 C2.95068074 11.64904062 3.08259976 14.21742043 3 17 C2.34 17 1.68 17 1 17 C1 21.29 1 25.58 1 30 C0.67 30 0.34 30 0 30 C0 20.1 0 10.2 0 0 Z " fill="#F9643B" transform="translate(4,324)"/>
<path d="M0 0 C0.66 0 1.32 0 2 0 C1.70887831 6.41923331 0.54784971 10.62100206 -3 16 C-4.49828872 12.11764181 -3.43110582 9.56550712 -2.0625 5.75 C-1.68222656 4.67234375 -1.30195312 3.5946875 -0.91015625 2.484375 C-0.45962891 1.25460937 -0.45962891 1.25460937 0 0 Z " fill="#F95428" transform="translate(91,324)"/>
<path d="M0 0 C0.33 0 0.66 0 1 0 C1.20496094 1.09699219 1.40992188 2.19398438 1.62109375 3.32421875 C1.89321293 4.77864887 2.16534925 6.23307578 2.4375 7.6875 C2.57220703 8.40873047 2.70691406 9.12996094 2.84570312 9.87304688 C3.54098845 13.58688798 4.24774702 17.29716254 5 21 C1.62145482 17.89667339 -0.05339403 14.46470058 -1 10 C-0.95658483 6.60879314 -0.56821773 3.34084643 0 0 Z " fill="#FDD7CD" transform="translate(145,277)"/>
<path d="M0 0 C0.33 0 0.66 0 1 0 C1.90413673 3.83724172 2.10576898 7.37502274 2.0625 11.3125 C2.05347656 12.38113281 2.04445312 13.44976562 2.03515625 14.55078125 C2.02355469 15.35902344 2.01195312 16.16726563 2 17 C1.34 17 0.68 17 0 17 C-0.90654677 11.67403774 -1.39446773 6.40652829 -1 1 C-0.67 0.67 -0.34 0.34 0 0 Z " fill="#FEEFEB" transform="translate(143,265)"/>
<path d="M0 0 C0.66 0 1.32 0 2 0 C2 5.61 2 11.22 2 17 C-1.41794232 12.44274358 -1.2800783 11.63707547 -0.6875 6.25 C-0.56761719 5.07953125 -0.44773438 3.9090625 -0.32421875 2.703125 C-0.21722656 1.81109375 -0.11023437 0.9190625 0 0 Z " fill="#F96036" transform="translate(46,182)"/>
<path d="M0 0 C1.09898702 3.29696105 0.87124444 4.40494903 0.0625 7.6875 C-0.22947266 8.89986328 -0.22947266 8.89986328 -0.52734375 10.13671875 C-0.68332031 10.75160156 -0.83929687 11.36648438 -1 12 C-1.99 11.67 -2.98 11.34 -4 11 C-3.5247412 9.35303396 -3.04468109 7.70745272 -2.5625 6.0625 C-2.29566406 5.14597656 -2.02882813 4.22945313 -1.75390625 3.28515625 C-1 1 -1 1 0 0 Z " fill="#FDE1D9" transform="translate(30,280)"/>
<path d="M0 0 C0.33 0.66 0.66 1.32 1 2 C1.66 2.33 2.32 2.66 3 3 C1.68 5.64 0.36 8.28 -1 11 C-2.41687119 6.74938644 -1.19320039 4.28148375 0 0 Z " fill="#FDD2C7" transform="translate(150,105)"/>
<path d="M0 0 C0.66 0 1.32 0 2 0 C1.67 2.31 1.34 4.62 1 7 C0.01 7 -0.98 7 -2 7 C-1.125 2.25 -1.125 2.25 0 0 Z " fill="#FDD7CD" transform="translate(231,346)"/>
<path d="M0 0 C0.66 0 1.32 0 2 0 C5 4.38461538 5 4.38461538 5 7 C4.01 7.33 3.02 7.66 2 8 C1.34 5.36 0.68 2.72 0 0 Z " fill="#F95D33" transform="translate(144,323)"/>
<path d="M0 0 C0.66 0 1.32 0 2 0 C2 1.98 2 3.96 2 6 C0.02 6.99 0.02 6.99 -2 8 C-1.34 5.36 -0.68 2.72 0 0 Z " fill="#F9643C" transform="translate(91,324)"/>
<path d="M0 0 C0.99 0.99 1.98 1.98 3 3 C2.01 4.98 1.02 6.96 0 9 C-1.10844919 5.67465243 -0.84454356 3.37817425 0 0 Z " fill="#F96138" transform="translate(170,93)"/>
</svg>
